<?xml version="1.0" standalone="no"?>
<!DOCTYPE svg PUBLIC "-//W3C//DTD SVG 20010904//EN"
 "http://www.w3.org/TR/2001/REC-SVG-20010904/DTD/svg10.dtd">
<svg version="1.0" xmlns="http://www.w3.org/2000/svg"
 width="500.000000pt" height="500.000000pt" viewBox="0 0 500.000000 500.000000"
 preserveAspectRatio="xMidYMid meet">

<g transform="translate(0.000000,500.000000) scale(0.100000,-0.100000)"
fill="#000000" stroke="none">
<path d="M2653 2055 c-11 -8 -24 -26 -27 -40 -4 -14 -11 -25 -16 -25 -6 0 -10
-15 -10 -32 l-1 -33 -22 37 c-27 46 -53 57 -72 31 -14 -17 -14 -17 -15 4 -1
64 -31 69 -86 14 l-39 -38 -25 38 c-30 48 -51 49 -86 4 -17 -23 -33 -34 -42
-30 -17 6 -96 -71 -107 -104 -4 -13 -1 -31 9 -45 11 -17 12 -26 3 -35 -8 -8
-4 -11 16 -11 15 0 29 1 31 3 2 1 13 -7 25 -17 21 -19 21 -19 21 0 1 16 5 14
23 -11 12 -16 22 -34 22 -40 1 -5 7 -9 13 -7 7 1 25 3 40 4 15 1 35 8 45 16
18 16 24 62 6 62 -5 0 -7 4 -4 10 9 15 -22 67 -44 73 -13 3 -25 -2 -35 -17
-15 -21 -15 -21 -15 7 -1 15 -5 27 -10 27 -5 0 -9 16 -8 35 1 19 5 35 10 35 6
0 16 8 23 18 12 16 13 15 22 -7 7 -20 10 -21 15 -8 4 10 14 17 23 17 11 0 14
-5 10 -16 -3 -9 -3 -21 1 -27 4 -7 9 -23 11 -37 4 -31 11 -38 20 -23 10 16 52
5 52 -14 0 -9 6 -13 14 -10 23 9 25 -24 4 -65 -10 -21 -18 -44 -18 -52 0 -21
32 -30 43 -11 6 11 15 14 29 9 17 -5 20 -3 15 11 -5 12 -2 16 9 13 17 -3 28
-18 38 -50 3 -11 15 -18 31 -18 15 0 24 -4 21 -8 -3 -5 17 -4 44 2 35 7 47 13
40 21 -6 8 -5 18 3 28 9 14 18 15 43 8 25 -7 34 -5 52 14 12 13 22 30 22 38 0
8 8 18 18 23 18 8 26 9 77 13 17 2 24 5 18 8 -7 2 -13 13 -13 24 0 23 -23 62
-59 102 -28 30 -49 35 -57 12 -4 -8 -12 -15 -20 -15 -8 0 -11 -6 -8 -15 4 -8
2 -15 -2 -15 -18 0 -32 16 -43 51 -6 20 -22 46 -34 57 -21 20 -25 20 -44 7z
m27 -132 c0 -13 3 -13 15 -3 9 7 18 10 22 7 13 -14 9 -65 -7 -87 l-17 -23 -50
38 c-46 34 -49 39 -39 61 8 19 16 23 34 19 12 -3 22 -1 22 5 0 6 5 8 10 5 6
-3 10 -13 10 -22z"/>
<path d="M2570 2030 c0 -5 5 -10 10 -10 6 0 10 5 10 10 0 6 -4 10 -10 10 -5 0
-10 -4 -10 -10z"/>
<path d="M2915 1353 c-4 -16 -10 -35 -15 -44 -7 -13 -4 -15 18 -11 15 3 22 7
15 9 -9 3 -9 12 -2 29 12 32 12 44 -1 44 -5 0 -12 -12 -15 -27z"/>
<path d="M2965 1330 c-16 -17 -16 -20 -3 -15 9 4 19 13 22 21 7 19 2 18 -19
-6z"/>
</g>
</svg>
