<?xml version="1.0" standalone="no"?>
<!DOCTYPE svg PUBLIC "-//W3C//DTD SVG 20010904//EN"
 "http://www.w3.org/TR/2001/REC-SVG-20010904/DTD/svg10.dtd">
<svg version="1.0" xmlns="http://www.w3.org/2000/svg"
 width="500.000000pt" height="500.000000pt" viewBox="0 0 500.000000 500.000000"
 preserveAspectRatio="xMidYMid meet">

<g transform="translate(0.000000,500.000000) scale(0.100000,-0.100000)"
fill="#000000" stroke="none">
<path d="M2235 4489 c-162 -27 -186 -31 -182 -35 2 -3 49 3 103 13 151 26 470
24 630 -5 118 -21 344 -84 374 -104 12 -7 10 -8 -5 -3 -74 25 -265 67 -362 80
-148 19 -438 19 -587 0 -324 -43 -614 -159 -901 -363 -101 -72 -313 -282 -389
-387 -67 -91 -84 -110 -67 -77 31 60 178 239 281 342 63 63 93 96 65 73 -82
-68 -248 -243 -307 -323 -293 -402 -426 -883 -378 -1361 41 -404 217 -817 484
-1137 288 -345 675 -578 1123 -674 98 -21 134 -23 373 -23 218 0 282 3 363 19
54 10 96 20 94 23 -2 2 -49 -4 -103 -14 -123 -21 -419 -23 -554 -4 -100 14
-307 62 -350 81 l-25 11 25 -6 c14 -3 81 -17 150 -32 120 -27 137 -28 405 -27
266 0 287 1 414 28 309 63 580 187 826 375 141 108 305 286 410 444 21 31 40
57 42 57 5 0 -1 -11 -58 -96 -95 -143 -200 -260 -379 -424 l-35 -32 45 33 c25
18 106 94 181 168 104 105 154 164 217 260 261 394 376 840 332 1282 -32 310
-129 595 -305 894 -147 250 -369 483 -612 642 -239 156 -510 259 -786 298
-111 16 -466 19 -552 4z m380 -89 c768 -60 1425 -577 1676 -1319 22 -64 37
-100 33 -81 -11 67 -75 246 -124 349 -91 190 -197 345 -339 496 l-75 80 83
-80 c377 -364 569 -850 548 -1385 -13 -305 -77 -550 -216 -829 -28 -55 -53
-101 -56 -101 -3 0 15 41 41 91 25 50 59 126 75 168 31 80 89 286 88 311 0 8
-11 -24 -24 -72 -153 -556 -530 -1008 -1045 -1251 -260 -123 -505 -179 -780
-180 -290 0 -547 62 -820 197 -354 176 -668 483 -844 826 -76 147 -97 199
-143 340 -18 58 -31 87 -28 66 22 -141 153 -437 272 -616 84 -127 117 -167
236 -290 88 -91 89 -92 22 -33 -339 297 -539 678 -599 1141 -46 355 13 735
164 1060 24 51 45 90 47 88 2 -2 -7 -26 -20 -53 -59 -116 -149 -406 -146 -468
1 -11 7 9 15 44 22 103 91 298 143 406 248 519 694 887 1255 1035 137 36 215
50 331 60 50 4 95 8 100 8 6 1 64 -3 130 -8z m595 -60 c8 -5 11 -10 5 -10 -5
0 -17 5 -25 10 -8 5 -10 10 -5 10 6 0 17 -5 25 -10z m-1651 -154 c-2 -2 -49
-34 -103 -70 -253 -171 -457 -376 -611 -614 -148 -231 -264 -566 -295 -855 -9
-81 -9 -81 -5 26 11 257 106 547 266 815 153 255 381 481 648 644 83 50 116
68 100 54z m-749 -656 c-6 -11 -13 -20 -16 -20 -2 0 0 9 6 20 6 11 13 20 16
20 2 0 0 -9 -6 -20z m35 -90 c-9 -16 -18 -30 -21 -30 -2 0 2 14 11 30 9 17 18
30 21 30 2 0 -2 -13 -11 -30z m3605 -1175 c-33 -320 -156 -621 -367 -903 -121
-160 -329 -356 -486 -456 -31 -20 -57 -35 -57 -33 0 2 42 35 93 72 127 95 377
347 459 465 135 191 239 414 298 633 31 115 59 277 62 357 1 41 2 42 5 10 3
-19 0 -84 -7 -145z m-320 -765 c-6 -11 -13 -20 -16 -20 -2 0 0 9 6 20 6 11 13
20 16 20 2 0 0 -9 -6 -20z m80 -10 c-6 -11 -13 -20 -16 -20 -2 0 0 9 6 20 6
11 13 20 16 20 2 0 0 -9 -6 -20z m-2315 -860 c13 -6 15 -9 5 -9 -8 0 -22 4
-30 9 -18 12 -2 12 25 0z"/>
<path d="M1595 3468 c-22 -5 -57 -11 -78 -11 -42 -2 -57 -18 -57 -59 0 -24 4
-28 30 -28 l30 0 -41 -81 c-42 -85 -99 -254 -99 -295 0 -28 8 -29 53 -10 29
12 35 22 51 77 28 103 52 149 76 149 13 0 19 4 14 11 -5 8 1 10 18 6 48 -12
187 52 241 112 51 56 49 99 -4 126 -32 17 -170 19 -234 3z m206 -67 l23 -18
-27 -25 c-14 -13 -44 -31 -67 -38 -22 -7 -40 -16 -40 -20 0 -9 -93 -50 -114
-50 -23 0 -20 15 20 85 32 58 39 65 77 73 67 15 103 13 128 -7z"/>
<path d="M2827 3420 c-48 -53 -127 -195 -127 -228 0 -39 -95 -122 -140 -122
-20 0 -50 41 -50 69 0 33 17 51 26 27 18 -47 78 8 72 65 -2 27 -10 37 -42 53
l-38 21 -39 -44 c-24 -27 -39 -54 -39 -70 -1 -62 -77 -167 -117 -159 -32 6
-24 97 17 196 28 68 38 84 59 88 72 15 78 18 34 22 -41 3 -42 4 -45 45 -5 70
-54 56 -89 -26 -8 -19 -22 -30 -42 -34 -26 -5 -28 -8 -13 -18 20 -15 20 -25
-1 -93 -14 -43 -27 -62 -57 -84 -21 -15 -44 -28 -50 -28 -6 0 -22 19 -35 43
-22 41 -23 45 -7 75 21 40 20 55 -3 83 l-19 23 -21 -34 c-17 -27 -21 -46 -18
-82 3 -41 0 -51 -23 -73 -14 -14 -34 -25 -44 -25 -16 0 -18 6 -13 34 9 54 -11
61 -45 15 -30 -42 -38 -47 -38 -25 0 8 20 35 44 60 45 46 45 46 23 61 -36 25
-63 18 -102 -27 -19 -23 -38 -52 -41 -64 -13 -50 43 -90 91 -64 17 9 28 9 43
1 32 -17 58 -13 90 14 32 26 35 25 52 -19 8 -23 5 -31 -24 -64 -18 -20 -37
-48 -41 -61 -6 -21 -2 -19 25 12 51 58 69 47 26 -16 -23 -33 -23 -35 -5 -40
26 -7 89 67 89 104 0 19 9 34 28 47 47 33 48 32 49 -5 1 -49 32 -87 73 -91 27
-3 40 4 72 35 22 21 46 51 54 66 l15 28 29 -30 c23 -26 36 -31 75 -31 49 0 77
10 111 42 l22 19 6 -37 c10 -50 46 -84 89 -84 30 0 43 9 91 61 52 56 76 67 76
35 0 -19 45 -36 94 -36 32 0 54 8 84 30 63 46 55 69 -9 25 -28 -19 -59 -35
-69 -35 -39 0 -74 76 -46 99 13 11 17 11 22 -3 11 -28 43 -18 61 18 23 48 11
82 -34 101 -37 16 -37 16 -70 -18 -22 -21 -39 -52 -48 -86 -15 -59 -49 -108
-92 -133 -43 -25 -56 -11 -56 59 0 62 9 85 73 184 54 84 76 144 60 164 -20 24
-36 18 -83 -35z m63 0 c0 -29 -101 -202 -107 -183 -5 15 53 152 74 175 18 20
33 23 33 8z m-515 -49 c-7 -32 -25 -43 -25 -15 0 19 20 57 27 51 3 -3 2 -19
-2 -36z m-33 -112 c-9 -23 -18 -37 -20 -30 -5 16 18 82 28 76 5 -3 1 -24 -8
-46z m239 -41 c-9 -25 -41 -37 -41 -16 0 17 20 38 37 38 9 0 10 -7 4 -22z
m479 10 c0 -24 -18 -41 -35 -34 -17 6 -17 8 0 26 21 23 35 26 35 8z"/>
<path d="M3493 3328 c-23 -30 -24 -38 -3 -38 23 0 38 26 23 41 -6 6 -13 5 -20
-3z"/>
<path d="M3200 3278 c-39 -107 -44 -220 -10 -238 27 -15 44 8 93 122 45 107
52 118 43 66 -5 -30 -3 -41 13 -57 20 -20 51 -19 51 1 0 5 -4 6 -10 3 -6 -3
-10 5 -10 19 0 41 -18 78 -37 74 -9 -2 -31 -33 -50 -70 -41 -82 -63 -91 -28
-12 30 68 31 78 5 104 -29 29 -46 25 -60 -12z"/>
<path d="M3653 3248 c-11 -13 -39 -51 -62 -85 -82 -123 -141 -103 -95 33 17
52 15 59 -18 50 -16 -4 -30 -22 -46 -58 -29 -69 -29 -112 0 -132 40 -28 76
-20 124 27 43 43 44 44 61 25 13 -15 25 -18 48 -13 38 7 52 7 91 -1 26 -5 38
0 68 26 20 18 36 39 36 48 0 10 -12 3 -34 -21 -19 -21 -43 -37 -56 -37 -20 0
-21 3 -15 40 9 52 -7 52 -51 3 -18 -21 -33 -32 -34 -25 0 7 21 36 47 63 45 49
47 52 28 65 -28 21 -69 17 -92 -8z"/>
<path d="M4332 2945 c0 -11 4 -31 8 -45 6 -20 8 -21 8 -5 0 11 -4 31 -8 45 -6
20 -8 21 -8 5z"/>
<path d="M4351 2854 c0 -11 3 -14 6 -6 3 7 2 16 -1 19 -3 4 -6 -2 -5 -13z"/>
<path d="M631 2804 c0 -11 3 -14 6 -6 3 7 2 16 -1 19 -3 4 -6 -2 -5 -13z"/>
<path d="M1850 2546 c0 -79 2 -86 20 -86 15 0 20 7 20 28 0 23 6 30 32 37 37
12 51 42 34 76 -9 19 -20 25 -59 27 l-47 3 0 -85z m75 29 c0 -11 -8 -21 -17
-23 -14 -3 -18 3 -18 23 0 20 4 26 18 23 9 -2 17 -12 17 -23z"/>
<path d="M2261 2578 c-11 -24 -11 -33 -3 -36 7 -2 12 -21 12 -43 0 -28 4 -39
15 -39 11 0 15 11 15 40 0 22 5 40 10 40 6 0 10 7 10 15 0 8 -4 15 -10 15 -5
0 -10 9 -10 20 0 31 -23 24 -39 -12z"/>
<path d="M1997 2552 c-48 -52 19 -116 84 -82 13 7 19 21 19 45 0 24 -6 38 -19
45 -30 15 -66 12 -84 -8z m68 -37 c0 -13 -8 -21 -22 -23 -19 -3 -23 1 -23 23
0 22 4 26 23 23 14 -2 22 -10 22 -23z"/>
<path d="M2130 2555 c-15 -19 3 -45 31 -45 21 0 34 -16 20 -24 -5 -4 -12 -2
-16 4 -7 12 -45 14 -45 2 0 -26 54 -41 94 -26 35 14 11 64 -31 64 -13 0 -23 5
-23 10 0 7 14 8 38 4 34 -7 36 -6 23 9 -17 21 -74 22 -91 2z"/>
<path d="M2340 2514 c0 -47 2 -54 20 -54 16 0 20 7 20 36 0 27 5 37 20 41 36
10 23 31 -20 31 l-40 1 0 -55z"/>
<path d="M2443 2544 c-15 -24 -15 -29 -2 -53 10 -18 24 -27 47 -29 32 -3 62
11 62 29 0 12 -34 11 -46 -1 -8 -8 -15 -6 -24 5 -11 13 -7 15 34 15 50 0 54 4
30 38 -23 33 -78 30 -101 -4z m72 -4 c4 -6 -5 -10 -20 -10 -15 0 -24 4 -20 10
3 6 12 10 20 10 8 0 17 -4 20 -10z"/>
<path d="M2587 2564 c-18 -19 -5 -43 29 -54 25 -9 33 -15 25 -23 -7 -7 -15 -6
-25 2 -8 7 -23 11 -32 9 -17 -3 -17 -4 0 -20 24 -25 82 -24 96 1 12 23 -10 51
-41 51 -10 0 -19 4 -19 10 0 5 13 7 31 3 25 -5 31 -3 27 8 -5 15 -78 25 -91
13z"/>
<path d="M2776 2510 c18 -46 22 -65 14 -80 -14 -26 -13 -30 9 -30 14 0 25 19
47 77 16 43 31 81 32 85 2 4 -5 8 -16 8 -15 0 -24 -11 -33 -37 l-12 -38 -12
35 c-8 23 -19 36 -33 38 -21 3 -21 3 4 -58z"/>
<path d="M2960 2515 c0 -48 2 -55 20 -55 17 0 20 7 20 40 0 29 4 40 15 40 11
0 15 -11 15 -40 0 -33 3 -40 20 -40 16 0 20 7 20 34 0 38 17 57 31 35 5 -8 9
-26 9 -41 0 -18 5 -28 15 -28 19 0 21 83 3 97 -7 6 -48 11 -90 12 l-78 1 0
-55z"/>
<path d="M3180 2555 c-7 -8 -12 -26 -12 -40 0 -41 19 -55 73 -53 l49 1 0 52 0
52 -49 1 c-32 1 -53 -3 -61 -13z m73 -27 c7 -21 -4 -38 -23 -38 -10 0 -20 6
-23 13 -7 20 4 37 23 37 10 0 20 -6 23 -12z"/>
<path d="M3327 2564 c-18 -19 -5 -43 29 -54 25 -9 33 -15 25 -23 -7 -7 -15 -6
-25 2 -8 7 -23 11 -32 9 -17 -3 -17 -4 0 -20 24 -25 82 -24 96 1 12 23 -10 51
-41 51 -10 0 -19 4 -19 10 0 5 13 7 31 3 25 -5 31 -3 27 8 -5 15 -78 25 -91
13z"/>
<path d="M4362 2200 c0 -14 2 -19 5 -12 2 6 2 18 0 25 -3 6 -5 1 -5 -13z"/>
<path d="M632 2190 c0 -14 2 -19 5 -12 2 6 2 18 0 25 -3 6 -5 1 -5 -13z"/>
<path d="M4352 2140 c0 -14 2 -19 5 -12 2 6 2 18 0 25 -3 6 -5 1 -5 -13z"/>
<path d="M641 2134 c0 -11 3 -14 6 -6 3 7 2 16 -1 19 -3 4 -6 -2 -5 -13z"/>
<path d="M651 2084 c0 -11 3 -14 6 -6 3 7 2 16 -1 19 -3 4 -6 -2 -5 -13z"/>
<path d="M2653 2055 c-11 -8 -24 -26 -27 -40 -4 -14 -11 -25 -16 -25 -6 0 -10
-15 -10 -32 l-1 -33 -22 37 c-27 46 -53 57 -72 31 -14 -17 -14 -17 -15 4 -1
64 -31 69 -86 14 l-39 -38 -25 38 c-30 48 -51 49 -86 4 -17 -23 -33 -34 -42
-30 -17 6 -96 -71 -107 -104 -4 -13 -1 -31 9 -45 11 -17 12 -26 3 -35 -8 -8
-4 -11 16 -11 15 0 29 1 31 3 2 1 13 -7 25 -17 21 -19 21 -19 21 0 1 16 5 14
23 -11 12 -16 22 -34 22 -40 1 -5 7 -9 13 -7 7 1 25 3 40 4 15 1 35 8 45 16
18 16 24 62 6 62 -5 0 -7 4 -4 10 9 15 -22 67 -44 73 -13 3 -25 -2 -35 -17
-15 -21 -15 -21 -15 7 -1 15 -5 27 -10 27 -5 0 -9 16 -8 35 1 19 5 35 10 35 6
0 16 8 23 18 12 16 13 15 22 -7 7 -20 10 -21 15 -8 4 10 14 17 23 17 11 0 14
-5 10 -16 -3 -9 -3 -21 1 -27 4 -7 9 -23 11 -37 4 -31 11 -38 20 -23 10 16 52
5 52 -14 0 -9 6 -13 14 -10 23 9 25 -24 4 -65 -10 -21 -18 -44 -18 -52 0 -21
32 -30 43 -11 6 11 15 14 29 9 17 -5 20 -3 15 11 -5 12 -2 16 9 13 17 -3 28
-18 38 -50 3 -11 15 -18 31 -18 15 0 24 -4 21 -8 -3 -5 17 -4 44 2 35 7 47 13
40 21 -6 8 -5 18 3 28 9 14 18 15 43 8 25 -7 34 -5 52 14 12 13 22 30 22 38 0
8 8 18 18 23 18 8 26 9 77 13 17 2 24 5 18 8 -7 2 -13 13 -13 24 0 23 -23 62
-59 102 -28 30 -49 35 -57 12 -4 -8 -12 -15 -20 -15 -8 0 -11 -6 -8 -15 4 -8
2 -15 -2 -15 -18 0 -32 16 -43 51 -6 20 -22 46 -34 57 -21 20 -25 20 -44 7z
m27 -132 c0 -13 3 -13 15 -3 9 7 18 10 22 7 13 -14 9 -65 -7 -87 l-17 -23 -50
38 c-46 34 -49 39 -39 61 8 19 16 23 34 19 12 -3 22 -1 22 5 0 6 5 8 10 5 6
-3 10 -13 10 -22z"/>
<path d="M2570 2030 c0 -5 5 -10 10 -10 6 0 10 5 10 10 0 6 -4 10 -10 10 -5 0
-10 -4 -10 -10z"/>
<path d="M2915 1353 c-4 -16 -10 -35 -15 -44 -7 -13 -4 -15 18 -11 15 3 22 7
15 9 -9 3 -9 12 -2 29 12 32 12 44 -1 44 -5 0 -12 -12 -15 -27z"/>
<path d="M2965 1330 c-16 -17 -16 -20 -3 -15 9 4 19 13 22 21 7 19 2 18 -19
-6z"/>
<path d="M2018 4443 c7 -3 16 -2 19 1 4 3 -2 6 -13 5 -11 0 -14 -3 -6 -6z"/>
<path d="M1978 4433 c7 -3 16 -2 19 1 4 3 -2 6 -13 5 -11 0 -14 -3 -6 -6z"/>
<path d="M1264 4078 l-19 -23 23 19 c21 18 27 26 19 26 -2 0 -12 -10 -23 -22z"/>
<path d="M3689 893 c-13 -16 -12 -17 4 -4 16 13 21 21 13 21 -2 0 -10 -8 -17
-17z"/>
<path d="M3008 563 c7 -3 16 -2 19 1 4 3 -2 6 -13 5 -11 0 -14 -3 -6 -6z"/>
<path d="M2968 553 c7 -3 16 -2 19 1 4 3 -2 6 -13 5 -11 0 -14 -3 -6 -6z"/>
</g>
</svg>
